HIERARCHY
ROOT pelvis
{
  OFFSET 0 100 0
  CHANNELS 6 Xposition Yposition Zposition Zrotation Xrotation Yrotation
  JOINT pelvis_right_femur
  {
    OFFSET -10.78128 -3.44521 -0.5502486
    CHANNELS 3 Zrotation Xrotation Yrotation
    JOINT right_femur_tibia
    {
      OFFSET -0.8047443 -44.0398 -0.1307829
      CHANNELS 3 Zrotation Xrotation Yrotation
      JOINT right_tibia_foot
      {
        OFFSET 3.006224 -47.83518 -5
        CHANNELS 3 Zrotation Xrotation Yrotation
        End Site
        {
          OFFSET 0 -5 15
        }
      }
    }
  }
  JOINT pelvis_left_femur
  {
    OFFSET 10.78128 -3.44521 -0.5502486
    CHANNELS 3 Zrotation Xrotation Yrotation
    JOINT left_femur_tibia
    {
      OFFSET 0.8047443 -44.0398 -0.1307829
      CHANNELS 3 Zrotation Xrotation Yrotation
      JOINT left_tibia_foot
      {
        OFFSET -4.370144 -48.10324 -4.275266
        CHANNELS 3 Zrotation Xrotation Yrotation
        End Site
        {
          OFFSET 0 -5 15
        }
      }
    }
  }
  JOINT pelvis_spine1
  {
    OFFSET 0 6.468898 -3.129235
    CHANNELS 3 Zrotation Xrotation Yrotation
    JOINT spine1
    {
      OFFSET 0 23.15396 4.99043
      CHANNELS 3 Zrotation Xrotation Yrotation
      JOINT spine2
      {
        OFFSET 0 20.79997 -5.064912
        CHANNELS 3 Zrotation Xrotation Yrotation
        JOINT neck
        {
          OFFSET 0 14.38658 9.616178
          CHANNELS 3 Zrotation Xrotation Yrotation
          End Site
          {
            OFFSET 0 20 0
          }
        }
      }
      JOINT right_manubrium
      {
        OFFSET -5.722621 16.35077 3.967754
        CHANNELS 3 Zrotation Xrotation Yrotation
        JOINT right_clavicle
        {
          OFFSET -13.16364 1.694482 -4.693211
          CHANNELS 3 Zrotation Xrotation Yrotation
          JOINT right_humerus
          {
            OFFSET -28.5034 -0.3100689 -2.792744
            CHANNELS 3 Zrotation Xrotation Yrotation
            JOINT right_radius
            {
              OFFSET -25.15693 0.02248979 -1.271978
              CHANNELS 3 Zrotation Xrotation Yrotation
              End Site
              {
                OFFSET -15 0 0
              }
            }
          }
        }
      }
      JOINT left_manubrium
      {
        OFFSET 5.722621 16.35077 3.967754
        CHANNELS 3 Zrotation Xrotation Yrotation
        JOINT left_clavicle
        {
          OFFSET 13.16364 1.694482 -4.693211
          CHANNELS 3 Zrotation Xrotation Yrotation
          JOINT left_humerus
          {
            OFFSET 29.39168 -1.063119 -2.237045
            CHANNELS 3 Zrotation Xrotation Yrotation
            JOINT left_radius
            {
              OFFSET 24.59957 -0.9528479 0.9047498
              CHANNELS 3 Zrotation Xrotation Yrotation
              End Site
              {
                OFFSET 15 -0 -0
              }
            }
          }
        }
      }
    }
  }
}
MOTION
Frames: 15
Frame Time: 0.0416666666667
0 103.5113 0 0.1480602 1.845112 0.4483129 3.498406 -14.68642 7.038684 -5.311144e-09 35.72252 3.36324e-09 -7.468062 -12.42919 -1.112788 -7.001241 4.593013 -21.69187 -6.382578e-10 3.684471 3.451935e-09 5.108418 -17.23291 22.87539 -3.346789 -2.702672 4.679671 2.573544 8.793373 -7.682973 0.3739779 21.34762 7.804697 3.813679 -26.71443 8.926749 6.847577 -20.62725 11.82766 83.56128 38.91663 -16.76884 4.593838e-10 -1.662503e-11 16.69153 -8.100131 8.683559 6.85238 4.9324 -19.11157 -1.195804 -95.61355 28.92311 27.04284 -4.774612e-10 1.742477e-10 -15.92631 4.194605 16.52423 10.40041
0.578872 103.789 2.128269 0.1855498 1.764914 0.9797686 3.382327 -16.23865 7.077024 -5.198087e-09 37.63368 3.266317e-09 -7.316784 -11.5658 -1.376821 -7.160764 6.45249 -22.01674 -6.178931e-10 3.597498 3.289269e-09 5.137915 -17.85074 22.87015 -3.478847 -2.679152 4.406106 2.58837 8.744429 -7.809647 0.4125518 21.49404 7.925025 3.863568 -26.68827 9.101584 6.9799 -20.21176 11.75542 84.34756 38.98877 -17.55643 4.002836e-10 7.71338e-12 16.06314 -8.025163 8.663119 6.685904 4.997068 -19.20806 -1.250029 -95.40606 29.26428 26.19675 -4.189431e-10 1.916067e-10 -16.3592 4.196026 16.52023 10.45029
1.133215 104.0734 4.298591 0.1867883 1.727287 1.556355 3.390533 -18.0885 6.996678 -4.822036e-09 37.99937 2.994188e-09 -7.210706 -10.92255 -1.655969 -7.17868 8.333496 -22.09483 -6.056144e-10 3.604291 3.075518e-09 5.105627 -18.47478 22.69912 -3.53912 -2.65161 4.140527 2.64311 8.716545 -7.995039 0.4433094 21.58694 7.996361 3.879255 -26.62879 9.21538 6.987085 -19.81688 11.68211 85.21512 38.90317 -18.51625 3.723298e-10 4.055756e-11 15.36982 -8.002604 8.709538 6.494839 5.142539 -19.48479 -1.35308 -94.92866 29.4257 25.07179 -3.819036e-10 2.07033e-10 -17.19918 4.34773 16.51466 10.26925
1.643207 104.2888 6.53576 0.1503225 1.739721 2.140488 3.522661 -20.13927 6.822998 -4.236071e-09 36.82686 2.592382e-09 -7.146185 -10.544 -1.938817 -7.069023 10.14017 -21.93564 -5.987896e-10 3.761244 2.827034e-09 4.99887 -19.06418 22.3663 -3.525083 -2.620127 3.897853 2.736669 8.704887 -8.229565 0.464441 21.61979 8.017872 3.861196 -26.54205 9.264691 6.881435 -19.4513 11.61236 86.09696 38.68337 -19.59082 3.753627e-10 7.62288e-11 14.64043 -8.017385 8.821995 6.282944 5.355323 -19.9176 -1.491456 -94.21171 29.41007 23.72895 -3.67082e-10 2.182484e-10 -18.39999 4.62548 16.49854 9.889646
2.09006 104.3466 8.875499 0.08081922 1.798878 2.692855 3.770836 -22.33953 6.572539 -3.499358e-09 34.0296 2.124546e-09 -7.0772 -10.50032 -2.239055 -6.836804 11.79606 -21.51853 -5.789911e-10 4.032025 2.55137e-09 4.787374 -19.62499 21.8782 -3.438594 -2.577783 3.6953 2.86603 8.705832 -8.51043 0.4789518 21.60516 7.989549 3.805112 -26.42174 9.25503 6.664661 -19.12995 11.55187 87.02515 38.3315 -20.76815 4.061126e-10 1.142573e-10 13.92077 -8.114286 9.032557 6.077853 5.641439 -20.50564 -1.657109 -93.33248 29.21069 22.19746 -3.754208e-10 2.25609e-10 -19.98158 4.99702 16.4465 9.358777
2.464546 104.2119 11.32949 -0.01452365 1.880986 3.184046 4.093129 -24.3979 6.296727 -2.759672e-09 30.3017 1.699312e-09 -7.042319 -10.67222 -2.512044 -6.540927 13.17075 -20.9369 -5.636252e-10 4.560636 2.277782e-09 4.500369 -20.04261 21.28324 -3.293525 -2.531167 3.537868 3.008678 8.714427 -8.789067 0.4863993 21.53154 7.916603 3.723751 -26.2721 9.185813 6.383174 -18.84431 11.49548 87.76932 37.90586 -21.85479 4.561182e-10 1.427576e-10 13.23302 -8.219811 9.272987 5.869592 5.934526 -21.13071 -1.827224 -92.31479 28.87725 20.65152 -3.985215e-10 2.262248e-10 -21.64776 5.410325 16.36529 8.743599
2.76157 103.8693 13.92198 -0.1139152 1.935898 3.596795 4.443727 -26.2859 6.024427 -2.057854e-09 26.14427 1.344296e-09 -6.977415 -10.9496 -2.796348 -6.220047 14.33669 -20.22563 -5.363814e-10 5.397948 1.997231e-09 4.111089 -20.34658 20.61542 -3.114134 -2.467507 3.415426 3.145404 8.729105 -9.051354 0.4997265 21.44259 7.813148 3.622094 -26.07233 9.087013 6.066908 -18.56064 11.43933 88.42287 37.4141 -22.86599 5.078551e-10 1.608169e-10 12.56552 -8.384524 9.556962 5.677887 6.221282 -21.75614 -2.001397 -91.25418 28.46117 19.09081 -4.243658e-10 2.204502e-10 -23.33367 5.807188 16.22813 8.134799
2.989342 103.3653 16.68859 -0.1858819 1.867089 3.930025 4.758679 -27.70616 5.817423 -1.467852e-09 22.58841 1.078962e-09 -6.842332 -11.13791 -3.111632 -5.945972 15.21904 -19.46584 -4.929447e-10 6.864685 1.714593e-09 3.590331 -20.46541 19.9608 -2.929432 -2.373537 3.336168 3.23644 8.766931 -9.248446 0.5365751 21.41079 7.697439 3.516423 -25.81502 8.996246 5.778077 -18.26155 11.39297 89.07194 36.88598 -23.73776 5.354032e-10 1.564003e-10 11.94209 -8.659844 9.875088 5.53514 6.441469 -22.28314 -2.175969 -90.38916 28.0537 17.68394 -4.330683e-10 2.023861e-10 -24.76622 6.092129 16.0225 7.688202
3.164193 102.8155 19.65535 -0.2188034 1.630693 4.192364 5.018539 -28.40474 5.734006 -1.038145e-09 20.40805 8.922835e-10 -6.658939 -11.09015 -3.442544 -5.767567 15.73857 -18.74165 -4.438207e-10 9.345718 1.446044e-09 2.936019 -20.27956 19.36862 -2.750568 -2.247662 3.303953 3.26005 8.833736 -9.339933 0.6018742 21.45483 7.580175 3.423123 -25.51071 8.92551 5.576044 -17.91881 11.35935 89.63444 36.3869 -24.37766 5.245672e-10 1.124323e-10 11.34865 -8.99101 10.1803 5.425588 6.52747 -22.61135 -2.339462 -89.7907 27.74566 16.57047 -4.115845e-10 1.63051e-10 -25.68551 6.205319 15.75548 7.496224
3.307865 102.3784 22.82413 -0.2154509 1.219157 4.395896 5.215859 -28.17662 5.782446 -7.876852e-10 19.98584 7.611734e-10 -6.503418 -10.71711 -3.736971 -5.699795 15.78672 -18.10999 -4.122715e-10 12.98908 1.209927e-09 2.20039 -19.68171 18.87399 -2.575969 -2.101988 3.321418 3.205933 8.935826 -9.294887 0.6905624 21.5524 7.458589 3.35219 -25.17447 8.860883 5.479942 -17.53893 11.33681 89.93469 35.95632 -24.66496 4.762494e-10 2.058981e-11 10.78903 -9.297989 10.40503 5.324735 6.432001 -22.6718 -2.486435 -89.41686 27.56148 15.87243 -3.571849e-10 9.868806e-11 -25.88044 6.151656 15.45909 7.54821
3.434437 102.1791 26.21561 -0.1914196 0.6564896 4.53289 5.416398 -27.02873 5.954073 -6.814864e-10 20.60289 6.838247e-10 -6.366492 -10.23115 -4.007919 -5.679364 15.22097 -17.46524 -3.816405e-10 17.9595 1.006659e-09 1.328974 -18.63981 18.44808 -2.372803 -1.929592 3.427186 3.092561 9.086198 -9.137026 0.7990575 21.70887 7.318119 3.293049 -24.8222 8.787456 5.458975 -17.16803 11.34805 90.10729 35.57506 -24.69067 4.005618e-10 -1.237686e-10 10.30716 -9.631829 10.61586 5.251571 6.186181 -22.54202 -2.619843 -89.34797 27.45294 15.59751 -2.800732e-10 6.091911e-12 -25.52386 5.951557 15.12107 7.824846
3.54474 102.3255 29.82072 -0.1942378 0.04416028 4.567488 5.722149 -24.91041 6.236339 -7.195871e-10 21.37354 6.904206e-10 -6.372982 -9.885708 -4.178018 -5.624101 13.81514 -16.75531 -3.818743e-10 24.41261 8.772952e-10 0.3556951 -17.02421 18.05212 -2.089487 -1.750806 3.65897 2.95769 9.284685 -8.885735 0.9002606 21.84477 7.135893 3.242617 -24.5124 8.650334 5.485695 -16.86711 11.41011 89.96464 35.29488 -24.42469 3.272461e-10 -3.329359e-10 9.935692 -9.863077 10.79029 5.159342 5.793138 -22.26482 -2.721721 -89.4783 27.34891 15.83521 -2.006944e-10 -1.190638e-10 -24.68997 5.676932 14.77964 8.213733
3.633075 102.8628 33.64502 -0.2338811 -0.5904209 4.449912 6.141805 -21.89304 6.572858 -8.694963e-10 21.59685 7.897648e-10 -6.486603 -9.872898 -4.258811 -5.460459 11.48641 -15.88345 -4.026522e-10 32.09763 8.240357e-10 -0.7313132 -14.89155 17.68447 -1.712597 -1.559907 4.040131 2.813345 9.53297 -8.563784 0.9921532 21.9582 6.899175 3.185514 -24.23818 8.439448 5.511386 -16.69038 11.53174 89.60354 35.06362 -23.9168 2.668434e-10 -5.967672e-10 9.745624 -10.07781 10.99121 5.091062 5.304477 -21.91592 -2.796163 -89.84234 27.17834 16.54645 -1.301396e-10 -2.719108e-10 -23.56683 5.352108 14.41802 8.679097
3.70959 103.7427 37.68263 -0.2896283 -1.201858 4.146393 6.542687 -17.93609 6.864127 -1.157873e-09 21.05233 1.005089e-09 -6.602367 -10.3567 -4.219822 -5.141449 8.083058 -14.85325 -4.373951e-10 39.5981 8.886677e-10 -1.807128 -12.48154 17.45895 -1.296268 -1.366833 4.584272 2.642086 9.800201 -8.158469 1.072109 22.03586 6.612131 3.105705 -23.9724 8.166066 5.485927 -16.7656 11.69638 88.94637 34.83887 -22.98996 2.269204e-10 -8.698251e-10 9.988711 -10.42413 11.23966 5.178929 4.788622 -21.48471 -2.823792 -90.49028 26.89543 17.79673 -8.313665e-11 -4.268511e-10 -22.16775 4.958194 14.02794 9.227942
3.78003 104.8661 41.92758 -0.3500951 -1.763849 3.644806 6.864735 -13.50067 7.050129 -1.506297e-09 19.70565 1.283036e-09 -6.643224 -11.24331 -4.102098 -4.656434 4.021611 -13.68485 -4.788469e-10 46.07179 1.038175e-09 -2.811596 -10.07881 17.35644 -0.8844689 -1.174566 5.22166 2.448916 10.05242 -7.705477 1.143713 22.06688 6.290687 2.995957 -23.67239 7.85512 5.380105 -17.04758 11.8653 88.04529 34.55401 -21.72982 2.07864e-10 -1.116792e-09 10.60817 -10.94331 11.53469 5.431912 4.313805 -21.01839 -2.817989 -91.2264 26.48567 19.29979 -6.056816e-11 -5.665199e-10 -20.69016 4.53151 13.60165 9.792705
